<svg width="24" height="18" viewBox="0 0 24 18" fill="none" xmlns="http://www.w3.org/2000/svg">
<path d="M18 7H16.74C16.3659 5.551 15.5928 4.23599 14.5086 3.2044C13.4245 2.1728 12.0727 1.46599 10.6069 1.16428C9.14112 0.862561 7.62008 0.97804 6.21664 1.49759C4.8132 2.01714 3.58363 2.91993 2.66764 4.10338C1.75165 5.28683 1.18598 6.70348 1.0349 8.19235C0.883813 9.68123 1.15338 11.1826 1.81296 12.526C2.47255 13.8693 3.4957 15.0007 4.76617 15.7916C6.03663 16.5824 7.50347 17.0011 8.99999 17H18C19.3261 17 20.5978 16.4732 21.5355 15.5355C22.4732 14.5979 23 13.3261 23 12C23 10.6739 22.4732 9.40215 21.5355 8.46447C20.5978 7.52678 19.3261 7 18 7Z" stroke="white" stroke-width="2" stroke-linecap="round" stroke-linejoin="round"/>
</svg>
